<svg width="42" height="82" viewBox="0 0 42 82" fill="none" xmlns="http://www.w3.org/2000/svg">
<path d="M26.704 82H0.72L12.368 26.96H38.608L26.704 82ZM41.936 10.192C41.936 12.1547 41.5093 13.8613 40.656 15.312C39.888 16.7627 38.8213 18 37.456 19.024C36.176 20.048 34.6827 20.816 32.976 21.328C31.2693 21.84 29.52 22.096 27.728 22.096C24.3147 22.096 21.456 21.2853 19.152 19.664C16.848 18.0427 15.696 15.4827 15.696 11.984C15.696 10.1067 16.08 8.44267 16.848 6.992C17.616 5.456 18.64 4.21866 19.92 3.28C21.2853 2.256 22.8213 1.488 24.528 0.975998C26.32 0.463994 28.1547 0.207993 30.032 0.207993C33.36 0.207993 36.176 1.01866 38.48 2.64C40.784 4.26133 41.936 6.77866 41.936 10.192Z" fill="#ED7631"/>
</svg>
